<svg xmlns="http://www.w3.org/2000/svg" height="247" width="247" viewBox="0 0 250 250">
 <g transform="matrix(1.33 0 0 -1.33 -727 565)">
  <g transform="matrix(2.13 0 0 2.13 -718 -373)">
   <path d="m682 331c0 24.1-19.5 43.6-43.6 43.6-24.1 0-43.6-19.5-43.6-43.6 0-24.1 19.5-43.6 43.6-43.6 24.1 0 43.6 19.5 43.6 43.6" fill="#2c2a29"/>
   <path transform="matrix(.75 0 0 -.75 595 374)" d="m58.1 0.969c-31.5 0-57.1 25.6-57.1 57.1 0 31.5 25.6 57.1 57.1 57.1 31.5 0 57.1-25.6 57.1-57.1 0-31.5-25.6-57.1-57.1-57.1zm-2e-3 1.61c30.6 0 55.5 24.8 55.5 55.5 0 30.6-24.9 55.5-55.5 55.5-30.7 0-55.5-24.9-55.5-55.5 0-30.7 24.9-55.5 55.5-55.5zm-0.0039 2.37c-29.3 0-53.1 23.8-53.1 53.1 0 29.3 23.8 53.1 53.1 53.1 29.4 0 53.1-23.8 53.1-53.1 0-29.3-23.8-53.1-53.1-53.1zm-0.205 2.73c0.08-0.00667 0.175 0.0388 0.201 0.0762-0.088 0.448-0.0957 1.5-0.0117 2.23-0.0533 0.121-0.399 0.172-0.467 0.0762-0.291-0.808-0.517-1.4-1.49-1.32l-0.771 0.0625c-0.307 0.0267-0.341 0.0683-0.314 0.404l0.463 5.67c0.096 1.2 0.179 1.29 0.77 1.32l0.52 0.0234c0.096 0.0693 0.12 0.364 0.0391 0.449-0.843 0.044-1.49 0.0829-2.07 0.131-0.619 0.0507-1.29 0.115-2.18 0.215-0.113-0.068-0.134-0.364-0.0371-0.449l0.572-0.111c0.573-0.113 0.642-0.232 0.549-1.43l-0.467-5.68c-0.0253-0.308-0.0292-0.373-0.34-0.348l-0.795 0.0664c-0.945 0.0773-1.17 0.611-1.48 1.58-0.148 0.088-0.4 0.0838-0.488-0.0762 0.201-0.911 0.198-1.71 0.246-2.22 0.0467-0.0413 0.11-0.0702 0.174-0.0742 0.0667-0.00667 0.135 4.9e-4 0.186 0.0352 0.084 0.213 0.126 0.26 1.1 0.182l4.78-0.391c0.855-0.0707 1.05-0.097 1.13-0.377 0.0507-0.0307 0.0867-0.048 0.164-0.0547zm2.83 0.398c0.605 0.0987 1.23 0.184 1.84 0.256l2.72 0.322c0.819 0.0947 1.55 0.169 1.72 0.164-0.0093 0.204-0.0336 1.14-0.0723 2-0.0627 0.136-0.363 0.125-0.477-0.0039-0.088-0.464-0.223-0.871-0.365-1.07-0.216-0.275-0.58-0.472-1.21-0.547l-1.03-0.121c-0.425-0.0493-0.425-0.0241-0.486 0.449l-0.262 2.24c-0.04 0.36-0.0282 0.388 0.314 0.43l0.887 0.102c0.665 0.08 0.828 0.0095 1.03-0.592l0.0996-0.311c0.103-0.0947 0.427-0.0564 0.477 0.0703-0.076 0.405-0.142 0.864-0.203 1.35-0.0547 0.487-0.0991 0.945-0.119 1.36-0.0787 0.107-0.394 0.0824-0.473-0.043l-0.0273-0.326c-0.0587-0.631-0.199-0.752-0.867-0.832l-0.883-0.104c-0.347-0.044-0.361-0.0305-0.402 0.354l-0.182 1.53c-0.0693 0.591-0.07 1.01 0.0566 1.24 0.143 0.253 0.377 0.382 1.31 0.49 1.11 0.132 1.56 0.146 2.43-1.22 0.116-0.127 0.432-0.0376 0.467 0.121-0.127 0.66-0.56 1.66-0.781 1.99-0.677-0.107-1.9-0.265-2.96-0.389l-1.67-0.197c-0.615-0.0693-1.24-0.132-2.21-0.219-0.0907-0.088-0.0559-0.399 0.0508-0.449l0.617-0.0195c0.587-0.02 0.672-0.0862 0.811-1.27l0.562-4.78c0.14-1.17 0.0711-1.25-0.49-1.44l-0.314-0.0996c-0.105-0.0893-0.0604-0.386 0.0742-0.447zm-15.5 1.56c0.16-0.044 0.254-0.0067 0.354 0.168 0.2 0.333 0.472 0.751 1.02 1.55l3.04 4.41c0.465 0.675 0.654 0.931 1.13 0.879l0.492-0.0547c0.092 0.04 0.201 0.333 0.111 0.436-0.607 0.141-1.28 0.314-1.93 0.492-0.623 0.169-1.11 0.317-1.67 0.498-0.155-0.0373-0.256-0.29-0.143-0.428l0.379-0.172c0.277-0.131 0.303-0.231 0.277-0.303-0.024-0.088-0.191-0.364-0.467-0.781l-0.631-0.98c-0.113-0.181-0.222-0.179-0.654-0.0586l-1.4 0.383c-0.293 0.0813-0.328 0.104-0.342 0.361l-0.0625 1.57c-4e-3 0.268 0.0118 0.371 0.0371 0.471 0.02 0.0747 0.139 0.122 0.504 0.0898l0.391-0.043c0.101 0.068 0.202 0.346 0.0957 0.443-0.444 0.0947-0.941 0.229-1.47 0.361-0.417 0.116-0.695 0.233-1.27 0.391-0.155-0.0373-0.217-0.302-0.154-0.428l0.328-0.127c0.288-0.12 0.503-0.289 0.582-0.832 0.076-0.555 0.136-1.21 0.227-2.2l0.287-3.34c0.0733-0.863 0.189-1.36 0.0508-1.71 0.561-0.299 0.857-1.03 0.881-1.04zm-4.95 1.37c0.0707 0.452 0.445 1.44 0.785 2.09-0.0093 0.135-0.311 0.309-0.412 0.242-0.555-0.652-0.985-1.12-1.86-0.701l-0.703 0.334c-0.277 0.132-0.292 0.18-0.152 0.484l2.46 5.14c0.517 1.08 0.629 1.14 1.18 0.963l0.494-0.164c0.116 0.0307 0.246 0.302 0.199 0.408-0.769 0.34-1.36 0.605-1.88 0.855-0.561 0.267-1.16 0.568-1.96 0.98-0.128-0.024-0.259-0.293-0.203-0.406l0.502-0.309c0.493-0.311 0.517-0.448-2e-3 -1.53l-2.45-5.14c-0.137-0.281-0.164-0.339-0.441-0.207l-0.723 0.348c-0.852 0.404-0.876 0.989-0.814 2-0.109 0.139-0.34 0.222-0.48 0.102-0.141-0.92-0.429-1.67-0.566-2.16 0.0307-0.056 0.076-0.107 0.139-0.137 0.0573-0.0253 0.122-0.0446 0.186-0.0312 0.152 0.169 0.204 0.201 1.09-0.223l4.33-2.07c0.769-0.368 0.942-0.462 0.93-0.758 0.0373-0.0453 0.0628-0.0721 0.135-0.105 0.0667-0.032 0.17-0.0286 0.211-2e-3zm35.5 0.127c0.552 0.295 1.12 0.586 1.69 0.85 0.572 0.277 1.14 0.535 1.72 0.781 0.0573 0.113-0.0628 0.373-0.189 0.398l-0.301-0.0898c-0.571-0.157-0.682-0.0976-1.2 0.982l-1.29 2.69c-0.653 1.36-1.22 2.93 0.553 3.78 1.49 0.713 2.56-0.369 3.33-1.96l0.676-1.41c0.451-0.943 0.825-1.85 0.848-2.21 0.012-0.292-0.215-0.487-0.5-0.693l-0.281-0.209c-0.0493-0.14 0.0841-0.359 0.189-0.396 0.616 0.324 1.06 0.555 1.54 0.781 0.429 0.208 0.87 0.404 1.32 0.592 0.0347 0.101-0.0521 0.346-0.189 0.396l-0.236-0.0547c-0.333-0.076-0.589-0.113-0.811 0.082-0.276 0.241-0.743 1.1-1.2 2.05l-0.623 1.3c-0.523 1.09-1.11 2.04-2.09 2.45-0.777 0.303-1.76 0.185-2.71-0.266-0.884-0.427-1.61-0.944-1.99-1.76-0.367-0.792-0.208-1.78 0.402-3.05l1.39-2.91c0.521-1.08 0.481-1.19 0.0039-1.54l-0.262-0.199c-0.056-0.116 0.0516-0.376 0.213-0.387zm-30.8 0.982c-0.0507 0.309-0.105 0.888-0.139 1.51l-0.0508 1.02c-0.024 0.365 0.0493 0.388 0.361 0.303l1.08-0.297c0.284-0.08 0.338-0.132 0.148-0.428l-0.598-0.92c-0.324-0.485-0.624-0.952-0.807-1.19zm-14.3 4.26c0.252 0.168 0.769 0.655 1.27 1.36 0.0387 0.164-0.213 0.364-0.381 0.328-0.564-0.404-1.57-0.839-2.32-0.295-0.692 0.503-0.741 1.22-0.361 1.74 0.352 0.479 1.1 0.608 1.81 0.5l0.959-0.135c0.895-0.125 2.16-0.12 2.99 1.03 0.932 1.28 0.484 2.89-1.09 4.03-0.959 0.697-1.75 0.858-2.06 0.889-0.365-0.0813-1.05-0.738-1.56-1.45-0.0253-0.189 0.212-0.374 0.377-0.316 0.703 0.525 2.1 0.975 2.99 0.334 0.769-0.561 0.74-1.35 0.361-1.88-0.613-0.844-1.77-0.77-2.63-0.627-1.02 0.171-2.3 0.143-3.05-0.891-0.869-1.17-0.542-2.65 0.969-3.75 0.347-0.251 0.808-0.518 1.31-0.699 0.167-0.0547 0.277-0.103 0.416-0.172zm55.5 0.131c0.451 0.404 0.944 0.827 1.35 1.16 0.34 0.277 0.642 0.502 0.869 0.658-0.271 0.532-0.239 1.82-0.215 3.62l0.0273 1.68c0.016 0.88 0.0232 1.47 0.0606 1.88 0.125-0.068 0.264-0.235 0.408-0.414l1.13-1.38c0.659-0.812 1.24-1.59 1.35-1.96 0.0787-0.283-0.0843-0.532-0.32-0.795l-0.236-0.256c-0.0173-0.145 0.178-0.342 0.283-0.354 0.528 0.46 0.907 0.79 1.32 1.13 0.372 0.301 0.737 0.583 1.14 0.885 0.0093 0.111-0.142 0.337-0.285 0.352l-0.207-0.117c-0.292-0.173-0.547-0.249-0.811-0.109-0.327 0.175-0.982 0.894-1.64 1.7l-1.95 2.39c-0.533 0.649-1.04 1.28-1.3 1.62-0.171 0.064-0.541-0.0546-0.781-0.252-0.0107-0.0093 0.0773-0.788 0.084-1.75l0.0293-4.75c0-1.18 0.0131-1.87-0.0469-2.17-0.131 0.0573-0.266 0.228-0.57 0.6l-1.59 1.94c-0.657 0.808-1.24 1.59-1.35 1.95-0.0773 0.284 0.0949 0.541 0.324 0.793l0.242 0.271c0.016 0.145-0.175 0.339-0.283 0.35-0.523-0.463-0.916-0.798-1.32-1.12-0.367-0.303-0.742-0.595-1.14-0.887-0.0093-0.109 0.143-0.336 0.283-0.348l0.197 0.107c0.309 0.171 0.57 0.264 0.82 0.117 0.332-0.177 0.974-0.901 1.63-1.71l2.08-2.54c0.451-0.549 0.57-0.717 0.629-0.906 0.0547-0.235 0.0131-0.467-0.295-0.803l-0.248-0.27c-0.0053-0.139 0.203-0.374 0.328-0.324zm-28.1 4.42c20.5 0 37.2 16.6 37.2 37.2 0 20.5-16.6 37.2-37.2 37.2-20.5 0-37.2-16.6-37.2-37.2 0-20.5 16.6-37.2 37.2-37.2zm36.9 3.36c0.429 0.549 0.836 1.05 1.24 1.53 0.393 0.46 0.82 0.946 1.29 1.46 0.0013 0.125-0.222 0.32-0.35 0.289l-0.279-0.234c-0.464-0.384-0.581-0.383-1.51 0.398l-3.62 3.07c-0.931 0.787-0.943 0.903-0.641 1.43l0.188 0.314c0.0027 0.131-0.229 0.313-0.355 0.283-0.433-0.548-0.83-1.04-1.22-1.5-0.399-0.473-0.826-0.955-1.3-1.47-8e-3 -0.125 0.218-0.322 0.344-0.289l0.281 0.232c0.463 0.385 0.584 0.386 1.51-0.398l3.62-3.07c0.928-0.788 0.944-0.904 0.639-1.42l-0.184-0.316c-0.0053-0.131 0.222-0.32 0.348-0.295zm-76.5 3.19c0.0598-0.0128 0.13 3.96e-4 0.223 0.0391 0.365 0.14 0.836 0.304 1.77 0.598l5.1 1.65c0.781 0.249 1.09 0.335 1.44 2e-3l0.359-0.346c0.1-0.0227 0.36 0.144 0.354 0.285-0.395 0.479-0.827 1.03-1.23 1.56-0.388 0.513-0.683 0.922-1.02 1.41-0.147 0.0627-0.38-0.0773-0.373-0.252l0.193-0.371c0.137-0.267 0.0972-0.362 0.0332-0.41-0.072-0.0547-0.372-0.168-0.844-0.332l-1.1-0.391c-0.204-0.0707-0.289-0.0085-0.562 0.355l-0.871 1.15c-0.184 0.248-0.199 0.287-0.0508 0.496l0.906 1.28c0.164 0.219 0.239 0.291 0.32 0.354 0.06 0.0453 0.183 0.0104 0.455-0.24l0.281-0.27c0.123-0.0067 0.376 0.15 0.35 0.295-0.296 0.345-0.603 0.757-0.939 1.18-0.265 0.353-0.417 0.611-0.771 1.09-0.149 0.0667-0.358-0.106-0.389-0.242l0.184-0.303c0.157-0.271 0.228-0.537-0.0449-1.02-0.279-0.487-0.63-1.04-1.16-1.88l-1.81-2.83c-0.475-0.729-0.686-1.2-1.01-1.39 0.261-0.58 0.0399-1.34 0.0586-1.36 0.0507-0.0673 0.1-0.106 0.16-0.119zm80.1 1.06c0.0381-0.0013 0.0745 0.0048 0.104 0.0215 0.328 0.572 0.52 0.95 0.871 1.53 0.304 0.509 0.599 0.975 1.03 1.64-0.0147 0.129-0.232 0.245-0.371 0.238l-0.266-0.293c-0.163-0.171-0.277-0.209-0.377-0.15-0.088 0.0547-0.44 0.509-0.945 1.18l-1.91 2.47c-0.313 0.401-0.505 0.666-0.646 0.855 0.243-0.0253 0.623-0.0707 1.03-0.139l1.29-0.215c0.868-0.141 2.38-0.422 2.84-0.518 0.26-0.0467 0.4-0.0857 0.465-0.123 0.076-0.0493 0.103-0.109 0.01-0.414l-0.111-0.369c0.0333-0.139 0.264-0.278 0.4-0.176 0.292 0.531 0.531 0.958 0.783 1.38 0.227 0.376 0.439 0.7 0.652 1 7e-3 0.117-0.249 0.289-0.361 0.252l-0.229-0.256c-0.243-0.276-0.437-0.371-0.754-0.375-0.511-0.0253-1.29 0.0346-2.41 0.197l-2.4 0.344c-1.68 0.24-2.73 0.466-3.5 0.586-0.109-0.056-0.222-0.168-0.322-0.332-0.076-0.135-0.102-0.256-0.0859-0.357 0.225-0.3 0.695-0.843 0.98-1.22l3.42-4.5c0.813-1.06 0.8-1.13 0.674-1.53l-0.152-0.508c0.049-0.123 0.187-0.203 0.301-0.207zm-78.9 1.15c0.151 0.273 0.46 0.764 0.818 1.28l0.58 0.844c0.205 0.301 0.277 0.274 0.469 0.0156l0.68-0.898c0.176-0.235 0.187-0.31-0.145-0.43l-1.04-0.365c-0.549-0.189-1.07-0.371-1.36-0.443zm-2.87 4.49c0.593-0.0022 1.19 0.132 1.73 0.389 1.57 0.735 2.48 2.07 2.52 3.73 0.0253 0.981-0.265 2.01-0.83 3.22-0.255 0.548-0.604 1.1-0.795 1.52-0.265 0.561-0.531 1.16-0.82 1.84-0.113 0.06-0.394-0.0714-0.408-0.191l0.107-0.391c0.164-0.565 0.105-0.678-0.971-1.18l-4.14-1.94c-1.11-0.519-1.34-0.597-1.65-0.0879l-0.127 0.213c-0.113 0.0893-0.452-0.0701-0.398-0.217 0.4-1.01 0.777-1.95 1.36-3.19 0.452-0.959 0.993-1.87 1.66-2.55 0.788-0.797 1.78-1.17 2.77-1.18zm-0.715 1.86c-0.176-0.0118-0.35-0.0093-0.518 0.0059-1.12 0.101-2.04 0.804-2.66 2.13-0.144 0.315-0.195 0.566-0.133 0.68 0.0627 0.115 0.278 0.23 0.645 0.4l4.27 1.99c0.643 0.3 1.07 0.477 1.41 0.381 0.337-0.103 0.602-0.394 0.795-0.814 0.945-2.03-0.53-3.56-2.12-4.3-0.593-0.276-1.16-0.433-1.69-0.469zm87.8 1.95c0.0434 3e-3 0.0823 0.017 0.111 0.041 0.187 0.579 0.388 1.18 0.596 1.76l0.928 2.58c0.284 0.777 0.542 1.47 0.627 1.62-0.191 0.0813-1.03 0.48-1.82 0.836-0.152 0-0.278-0.272-0.215-0.434 0.377-0.287 0.682-0.587 0.795-0.807 0.151-0.316 0.164-0.73-0.0508-1.33l-0.354-0.975c-0.145-0.399-0.165-0.391-0.617-0.227l-2.13 0.766c-0.34 0.123-0.352 0.143-0.24 0.471l0.301 0.838c0.229 0.635 0.369 0.749 0.998 0.658l0.322-0.0488c0.129 0.0507 0.236 0.354 0.152 0.455-0.4 0.12-0.842 0.264-1.3 0.428-0.457 0.168-0.892 0.338-1.27 0.498-0.131-0.0187-0.251-0.317-0.174-0.441l0.283-0.17c0.54-0.333 0.583-0.516 0.355-1.15l-0.305-0.838c-0.116-0.328-0.133-0.335-0.498-0.201l-1.44 0.52c-0.563 0.201-0.933 0.389-1.08 0.609-0.165 0.237-0.178 0.503 0.141 1.39 0.384 1.06 0.566 1.46 2.18 1.63 0.173 0.048 0.231 0.369 0.102 0.469-0.645 0.181-1.74 0.244-2.13 0.193-0.208-0.652-0.613-1.82-0.975-2.82l-0.568-1.58c-0.212-0.584-0.44-1.17-0.793-2.08 0.04-0.12 0.332-0.225 0.43-0.15l0.289 0.539c0.283 0.517 0.381 0.563 1.5 0.16l4.53-1.63c1.11-0.401 1.16-0.497 1.07-1.08l-0.0508-0.326c0.022-0.101 0.188-0.177 0.318-0.168zm-93.8 6.6c0.125-0.01 0.299 0.0497 0.336 0.139l-0.0176 0.367c-0.036 0.6 0.0296 0.696 1.21 0.979l4.62 1.1c1.18 0.283 1.29 0.226 1.53-0.326l0.145-0.336c0.1-0.0813 0.387-0.0014 0.439 0.113-0.188 0.675-0.352 1.29-0.49 1.88-0.139 0.603-0.277 1.23-0.416 1.92-0.101 0.0827-0.391 0.0138-0.441-0.104l0.0254-0.367c0.0373-0.601-0.0369-0.696-1.21-0.979l-4.62-1.1c-1.18-0.283-1.29-0.224-1.53 0.328l-0.145 0.336c-0.0973 0.0813-0.386 0.0125-0.436-0.104 0.183-0.672 0.344-1.3 0.49-1.9 0.141-0.592 0.276-1.22 0.412-1.9 0.024-0.0203 0.06-0.0318 0.102-0.0352zm96.7 2.73c0.0967-0.0102 0.198 0.0152 0.24 0.0879 0.197 0.951 0.393 1.94 0.562 3.16 0.152 1.09 0.119 2.04-0.107 2.57-0.332 0.804-0.911 1.28-1.73 1.39-1.13 0.164-1.73-0.537-2.11-1.08-0.0867-0.117-0.161-0.111-0.289-0.0254-1.6 1.09-2.48 1.75-2.92 2.44-0.219 0.369-0.251 0.713-0.236 0.906-0.0467 0.121-0.24 0.15-0.324 0.0957-0.119-0.189-0.2-0.596-0.26-0.992-0.165-1.17 0.15-1.98 0.994-2.67 0.619-0.505 1.2-0.891 1.84-1.28 0.325-0.201 0.398-0.42 0.354-0.738-0.0613-0.447-0.0936-0.47-0.35-0.432l-1.57 0.221c-1.18 0.167-1.25 0.257-1.28 0.844l-0.0137 0.354c-0.0507 0.0987-0.357 0.144-0.445 0.0625-0.0733-0.681-0.143-1.27-0.227-1.88-0.092-0.639-0.187-1.2-0.303-1.86 0.06-0.113 0.369-0.157 0.445-0.0625l0.111 0.332c0.188 0.563 0.29 0.629 1.46 0.461l4.53-0.635c1.28-0.184 1.42-0.227 1.42-0.775l4e-3 -0.354c0.0207-0.0693 0.112-0.115 0.209-0.125zm-0.148 2.84c-0.0915 0.0018-0.21 0.0177-0.363 0.0391l-2.49 0.354c-0.449 0.0627-0.48 0.107-0.377 0.861 0.0667 0.461 0.219 0.715 0.496 0.922 0.247 0.187 0.692 0.372 1.45 0.266 1.15-0.164 1.8-0.945 1.66-1.94-0.054-0.394-0.0907-0.505-0.365-0.5zm-89.8 1.13c0.0657-3e-3 0.131 0.0181 0.168 0.0527 0.0813 0.211 0.0865 0.625 0.0625 1.03-0.0573 1.18-0.519 1.91-1.47 2.43-0.705 0.376-1.35 0.638-2.05 0.902-0.355 0.136-0.467 0.336-0.48 0.66-0.0253 0.449-7.6e-4 0.476 0.254 0.49l1.59 0.0781c1.19 0.0627 1.28-0.0126 1.41-0.586l0.084-0.342c0.068-0.0853 0.377-0.0732 0.449 0.0215-0.06 0.681-0.103 1.27-0.133 1.89-0.0333 0.647-0.0472 1.22-0.0606 1.88-0.0787 0.101-0.391 0.0806-0.451-0.0234l-0.043-0.348c-0.0707-0.588-0.16-0.668-1.35-0.732l-4.56-0.229c-1.29-0.0667-1.43-0.0497-1.54 0.486l-0.0645 0.348c-0.0733 0.127-0.394 0.108-0.451-0.0508-0.0133-0.969-0.0119-1.97 0.0508-3.2 0.0507-1.09 0.265-2.03 0.592-2.5 0.475-0.724 1.13-1.08 1.96-1.04 1.14 0.056 1.59 0.858 1.86 1.46 0.0587 0.129 0.133 0.136 0.281 0.0801 1.77-0.763 2.76-1.24 3.32-1.83 0.289-0.321 0.386-0.654 0.408-0.846 0.0353-0.0573 0.102-0.0829 0.168-0.0859zm-6.01 3.19c-1.16-0.0627-1.94 0.584-1.99 1.59-0.028 0.528 0.0122 0.557 0.631 0.586l2.51 0.131c0.453 0.0213 0.492-0.0134 0.529-0.773 0.0267-0.467-0.0766-0.742-0.309-0.998-0.209-0.232-0.611-0.496-1.37-0.533zm90.6 3.05c0.216-0.0084 0.439-0.0074 0.66 0.0039 0.163 0.0987 0.159 0.396 0.0137 0.492-0.855 0.212-2.09 1.01-2.14 2.11-0.0493 0.951 0.58 1.43 1.22 1.46 1.05 0.0547 1.71-0.892 2.14-1.65 0.519-0.9 1.34-1.88 2.62-1.81 1.45 0.0627 2.4 1.25 2.3 3.12-0.0213 0.423-0.104 0.951-0.281 1.46-0.06 0.165-0.0963 0.282-0.127 0.436-0.288 0.088-0.991 0.176-1.86 0.131-0.151-0.072-0.145-0.396-0.0117-0.504 0.671-0.183 1.64-0.687 1.69-1.62 0.044-0.849-0.485-1.34-1.13-1.38-0.592-0.0307-1.16 0.468-1.53 1.1l-0.496 0.826c-0.468 0.777-1.27 1.75-2.69 1.68-1.59-0.088-2.55-1.44-2.45-3.39 0.0667-1.19 0.441-1.9 0.609-2.17 0.224-0.17 0.805-0.279 1.45-0.305zm-88.1 3.44c2.24 0.0376 3.8 1.55 4.19 3.95 0.42 2.56-0.959 4.7-3.62 5.13-2.52 0.412-4.78-1.16-5.21-3.82-0.431-2.65 1.05-4.76 3.64-5.19 0.346-0.0567 0.682-0.0816 1-0.0762zm0.963 1.98c-0.458-0.0145-0.953 0.0234-1.47 0.107-2.17 0.359-3.79 1.6-3.53 3.18 0.257 1.57 1.86 2.17 3.98 1.82 1.56-0.256 3.96-1.21 3.62-3.29-0.204-1.25-1.23-1.78-2.61-1.82zm84.9 1.54c0.126-0.0137 0.298 0.0428 0.336 0.133l-0.0059 0.365c-0.02 0.603 0.0562 0.696 1.24 0.938l4.65 0.957c1.19 0.243 1.29 0.184 1.51-0.377l0.139-0.34c0.0947-0.088 0.385-0.0268 0.441 0.0879-0.164 0.68-0.308 1.31-0.43 1.92-0.124 0.596-0.239 1.23-0.355 1.92-0.096 0.088-0.387 0.0248-0.443-0.0898l6e-3 -0.367c0.024-0.601-0.0497-0.696-1.24-0.938l-4.65-0.955c-1.19-0.247-1.3-0.189-1.51 0.375l-0.137 0.336c-0.0987 0.088-0.388 0.0177-0.441-0.0996 0.163-0.675 0.302-1.29 0.428-1.89 0.127-0.604 0.241-1.24 0.355-1.93 0.0247-0.021 0.0616-0.0345 0.104-0.0391zm-80.7 5.95c0.233 0.649 0.684 1.8 1.08 2.79l0.643 1.61c0.224 0.548 0.479 1.14 0.799 1.88-0.028 0.133-0.295 0.272-0.408 0.203l-0.238-0.43c-0.289-0.511-0.415-0.547-1.53-0.0938l-4.46 1.79c-1.11 0.453-1.19 0.567-1.05 1.13l0.0898 0.369c-0.0227 0.147-0.295 0.261-0.43 0.145-0.227-0.633-0.452-1.24-0.682-1.81-0.236-0.576-0.491-1.17-0.756-1.76 0.0387-0.127 0.313-0.234 0.422-0.17l0.172 0.293c0.303 0.507 0.429 0.538 1.54 0.0918l4.19-1.69c0.567-0.228 0.928-0.429 1.06-0.662 0.139-0.24 0.149-0.491-0.201-1.37-0.441-1.09-0.613-1.41-2.29-1.56-0.16-0.0493-0.221-0.346-0.109-0.486 0.644-0.195 1.75-0.303 2.14-0.27zm79.2 0.436c0.126 0.0084 0.289 0.0896 0.318 0.182l-0.15 0.568c-0.145 0.565-0.0641 0.679 1.06 1.11l5.32 2.03c0.291 0.109 0.354 0.136 0.461-0.154l0.283-0.75c0.341-0.879-0.0458-1.32-0.787-2.02-0.02-0.171 0.0946-0.391 0.281-0.404 0.733 0.572 1.46 0.914 1.89 1.18 0.0213 0.06 0.0214 0.129-4e-3 0.189-0.0253 0.0613-0.058 0.114-0.111 0.152-0.227-0.02-0.291 1.1e-4 -0.643 0.912l-1.72 4.49c-0.301 0.795-0.361 0.984-0.15 1.19 8e-3 0.0587 9e-3 0.0959-0.0215 0.172-0.028 0.0693-0.107 0.137-0.156 0.146-0.364-0.277-1.31-0.737-2-0.971-0.088-0.103 0.0147-0.438 0.139-0.463 0.847 0.0907 1.47 0.138 1.83-0.768l0.275-0.723c0.107-0.291 0.0874-0.34-0.225-0.461l-5.32-2.03c-1.12-0.431-1.25-0.395-1.53 0.121l-0.246 0.459c-0.101 0.0573-0.378-0.0496-0.418-0.156 0.323-0.775 0.566-1.38 0.77-1.92 0.225-0.583 0.452-1.21 0.748-2.07 0.0273-0.016 0.0654-0.0204 0.107-0.0176zm-3.63 7.92c0.117-0.044 0.365 0.117 0.377 0.244l-0.18 0.402c-0.236 0.543-0.204 0.656 0.807 1.3l0.545 0.348c0.544 0.347 0.719 0.448 1.48 0.535l3.5 0.416c0.583 0.0693 0.82 0.0841 1.13-0.256l0.303-0.328c0.148-0.0387 0.405 0.138 0.355 0.289-0.333 0.475-0.605 0.87-1.02 1.51-0.427 0.663-0.769 1.23-0.982 1.61-0.107 0.0733-0.37-0.0641-0.393-0.219l0.146-0.426c0.0813-0.223 0.0803-0.315 0.0683-0.324-0.0893-0.0547-0.283-0.105-0.939-0.201l-1.49-0.238c-0.46-0.0653-1.03-0.138-1.38-0.182 0.332 0.657 0.767 1.36 1.13 2.01 0.508 0.907 0.769 1.29 0.902 1.37 0.0653 0.044 0.179-0.0382 0.387-0.271l0.203-0.221c0.108-0.052 0.386 0.107 0.373 0.25-0.3 0.42-0.559 0.807-0.809 1.19-0.263 0.416-0.472 0.758-0.654 1.09-0.125 0.101-0.386-0.0652-0.402-0.201l0.125-0.32c0.088-0.219 0.148-0.471 0.0723-0.686-0.103-0.296-0.321-0.821-0.928-1.95l-0.803-1.48c-0.331-0.611-0.535-0.891-1.15-1.29l-0.756-0.49c-1.01-0.644-1.14-0.636-1.52-0.188l-0.33 0.4c-0.113 0.0333-0.364-0.127-0.379-0.25 0.472-0.692 0.821-1.22 1.16-1.74 0.331-0.523 0.672-1.07 1.06-1.72zm-71.1 1c0.416 0.687 0.745 1.23 1.08 1.74 0.323 0.5 0.682 1.03 1.12 1.67-0.0053 0.129-0.255 0.288-0.379 0.244l-0.283-0.32c-0.392-0.44-0.511-0.454-1.52 0.195l-4.03 2.61c-1.01 0.655-1.06 0.781-0.824 1.32l0.111 0.234c-0.0027 0.143-0.275 0.315-0.395 0.225-0.28-0.484-0.623-1.03-0.955-1.55l-1.47-2.27c-0.451-0.696-0.857-1.31-0.982-1.44 0.189-0.12 0.97-0.624 1.68-1.12 0.151-0.0293 0.316 0.202 0.316 0.389-0.368 0.405-0.574 0.661-0.645 0.859-0.112 0.332-0.0265 0.743 0.328 1.29l0.547 0.844c0.235 0.357 0.253 0.344 0.676 0.0684l1.96-1.27c0.295-0.189 0.318-0.22 0.129-0.512l-0.541-0.834c-0.372-0.572-0.526-0.645-1.12-0.41l-0.301 0.115c-0.144-0.0147-0.309-0.292-0.254-0.42 0.363-0.201 0.771-0.453 1.18-0.717 0.399-0.259 0.797-0.529 1.1-0.76 0.14 0.0013 0.325 0.265 0.275 0.402l-0.221 0.225c-0.449 0.444-0.461 0.619-0.0898 1.2l0.537 0.832c0.189 0.292 0.231 0.286 0.525 0.0938l1.46-0.947c1.01-0.651 1.05-0.775 0.795-1.3l-0.201-0.434c0.0133-0.117 0.264-0.28 0.377-0.248zm45.8 18.2c0.0627-0.016 0.166 0.0035 0.221 0.104 0.048 0.312 0.184 0.934 0.348 1.6l1.25 5.15c0.253 1.07 0.368 1.19 1.04 1.08l0.557-0.0957c0.141 0.0547 0.209 0.403 0.084 0.473-0.485 0.0947-1.29 0.275-2.12 0.473-0.883 0.215-1.69 0.422-2.16 0.568-0.148-9e-3 -0.241-0.354-0.141-0.463l0.535-0.174c0.644-0.209 0.692-0.367 0.436-1.44l-1.06-4.37c-0.213-0.883-0.316-1.07-0.928-1.01l-0.633 0.0703c-0.139-0.0387-0.227-0.354-0.139-0.461 0.529-0.215 1.12-0.511 1.62-0.787 0.544-0.321 0.991-0.693 1.09-0.719zm-19.4 0.385c0.068 0.0133 0.15 0.0788 0.15 0.189-0.101 0.301-0.264 0.92-0.42 1.59l-1.24 5.15c-0.255 1.07-0.203 1.22 0.439 1.44l0.539 0.17c0.104 0.112 0.0028 0.453-0.143 0.465-0.472-0.144-1.28-0.351-2.11-0.549-0.884-0.212-1.69-0.391-2.18-0.484-0.121-0.068-0.0548-0.42 0.0879-0.471l0.562 0.0937c0.669 0.101 0.782-0.012 1.04-1.08l1.05-4.38c0.208-0.884 0.207-1.1-0.359-1.32l-0.602-0.23c-0.107-0.0947-0.0414-0.42 0.084-0.475 0.571 0.0507 1.24 0.0544 1.8 0.0371 0.633-0.032 1.21-0.164 1.3-0.143zm14.3 0.527c0.108-0.0107 0.15 0.0563 0.162 0.152-0.0867 0.529-0.338 1.12-0.654 1.47l-3.07 0.57c-0.189 0.0453-0.254 0.189-0.291 0.424l-0.0606 0.32c-0.0547 0.325 0.124 0.368 0.4 0.373 0.737 0.0293 2.03 0.127 2.86 0.467 0.801 0.328 1.54 1.04 1.63 2.19 0.107 1.43-0.661 2.41-1.76 3.11-1.1 0.703-2.5 1.07-3.65 1.18-0.213-0.0787-0.303-0.503-0.131-0.641 0.987-0.113 2.08-0.385 2.7-0.818 0.773-0.544 1.2-1.21 1.14-1.95-0.14-1.96-2.22-2.02-3.6-2.03-0.441 7e-3 -0.506-0.114-0.447-0.436l0.592-3.22c0.0653-0.365 0.152-0.373 0.588-0.461zm-9.55 0.332c0.196-0.0135 0.399-0.0108 0.611 0.0078 1.55 0.129 2.58 1.06 2.47 2.37-0.088 0.977-0.894 1.42-1.66 1.76 0.985 0.612 1.73 1.41 1.62 2.73-0.111 1.29-1.21 2.29-3.36 2.1-1.6-0.137-2.94-0.988-2.81-2.48 0.088-1.03 0.872-1.67 2-2.12-0.807-0.54-1.35-1.26-1.27-2.23 0.103-1.18 1.03-2.03 2.4-2.13zm0.535 0.633c-0.631-0.052-1.16 0.444-1.22 1.18-0.0547 0.647 0.363 1.26 1.45 1.84 0.444-0.223 0.733-0.778 0.785-1.44 0.0853-0.945-0.46-1.53-1.01-1.58zm-1.04 4.17c-0.539 0.453-0.791 1.03-0.854 1.69-0.0773 0.961 0.416 1.79 1.31 1.87 0.603 0.0507 1.17-0.367 1.25-1.19 0.0907-1.09-0.617-1.73-1.71-2.37z" fill="#fff"/>
   <path d="m638 359c-15.9 0-28.8-12.9-28.8-28.8 0-15.9 12.9-28.8 28.8-28.8 15.9 0 28.8 12.9 28.8 28.8 0 15.9-12.9 28.8-28.8 28.8" fill="#2c2a29"/>
   <path transform="matrix(.75 0 0 -.75 595 374)" d="m58.1 20.9c-20.5 0-37.2 16.6-37.2 37.2 0 20.5 16.6 37.2 37.2 37.2 20.5 0 37.2-16.6 37.2-37.2 0-20.5-16.6-37.2-37.2-37.2zm0.465 1.73c1.93 1.85 4.11 4.51 4.11 8.49 0 0.579-0.125 1.13-0.328 1.69 0.836 1.08 1.46 2.91 1.46 5.15 0 2.69-1.32 4.19-2.63 5.95h5.68c-1.1-1.86-1.88-3.67-1.88-5.42 0-1.32 1.91-5.38 1.91-7.11 0-0.772-0.126-1.51-0.346-2.8 1.37 1.25 2.66 3.06 2.88 4.46 1.33-1.97 1.62-3.44 1.62-5 0-1.16-0.32-1.85-0.799-3.12 1.82 1.65 3.88 4.03 3.88 7.58 0 0.516-0.117 1.01-0.311 1.5 0.793 0.964 1.38 2.6 1.38 4.6 0 2.4-1.26 3.75-2.48 5.31h6.34l-3.37 5.19h-0.787l-0.74 2.41-0.33 6.14c2.93 0.612 5.38 1.08 7.73 1.29-3.99-4.48-3.9-10.2-2.26-12.7 0.741 2.34 1.62 3.43 2.95 4.75 1.12-1.93 2.32-3.51 3.62-5.13 0.129 2.93 0.458 6.86 1.43 7.84 1.55 1.54 3.86 1.14 5.24 2.52 1.3 1.31 0.289 5.74-0.701 9.79-1.11 1.57-3.59 2.56-7.39 2.56-3.72 0-8.01-0.733-11.1-1.27l-0.979 17.8 0.377 1.95-2.9 2.26-2.9-2.26 0.379-1.95-0.953-17.6c-1.23 0.46-2.77 0.905-4.46 1.2l-1.07 19.7 0.402 2.1-3.13 2.45-3.13-2.45 0.402-2.1-1.07-19.7c-1.68-0.296-3.23-0.74-4.45-1.2l-0.953 17.6 0.377 1.95-2.9 2.26-2.9-2.26 0.375-1.95-0.98-17.8c-3.13 0.539-7.41 1.27-11.1 1.27-3.79 0-6.28-0.984-7.39-2.56-0.989-4.05-2.01-8.48-0.703-9.79 1.38-1.37 3.7-0.977 5.24-2.52 0.971-0.972 1.3-4.91 1.43-7.84 1.3 1.62 2.5 3.21 3.62 5.13 1.33-1.33 2.21-2.41 2.95-4.75 1.64 2.54 1.73 8.23-2.26 12.7 2.35-0.212 4.79-0.679 7.73-1.29l-0.332-6.15-0.74-2.41h-0.783l-3.37-5.19h6.26c-1.09-1.86-1.87-3.67-1.87-5.42 0-1.32 1.91-5.38 1.91-7.11 0-0.772-0.132-1.51-0.352-2.8 1.37 1.25 2.67 3.06 2.89 4.46 1.34-1.97 1.63-3.44 1.63-5 0-1.16-0.322-1.85-0.795-3.12 1.82 1.65 3.87 4.03 3.87 7.58 0 0.516-0.113 1.01-0.303 1.5 0.785 0.964 1.38 2.6 1.38 4.6 0 2.4-1.25 3.75-2.48 5.31h5.67c-1.16-2.08-1.98-4.12-1.98-6.07 0-1.47 2.03-6.03 2.03-7.97 1e-6 -0.863-0.137-1.69-0.365-3.14 1.45 1.4 2.82 3.42 3.06 4.99 1.41-2.21 1.72-3.86 1.72-5.6 0-1.3-0.342-2.07-0.846-3.49zm-7.1 26.5-0.74 2.41-0.34 6.28c0.913 0.405 2.09 0.807 3.39 1.11l-0.365-6.78-0.799-2.6h-0.854l-0.277-0.422zm13.3 0-0.277 0.422h-0.854l-0.797 2.61-0.367 6.78c1.3-0.308 2.48-0.709 3.39-1.11l-0.342-6.29-0.738-2.41z" fill="#782f40"/>
   <path transform="matrix(.75 0 0 -.75 595 374)" d="m60.1 26.2c0.125 3.09-1.01 5.3-3.39 8.69 0.596-2.37 0.0187-4.12-0.807-4.91 0.0387 0.0827 0.0488 0.153 0.0488 0.283 0 2.01-1.98 5.83-1.98 7.68 0 2.04 0.895 3.83 2.22 6.01h0.391c-0.012-0.148-0.0234-0.309-0.0234-0.508 0-1.53 0.0996-3.33 2.15-6.41 2.14-3.19 2.88-3.97 2.88-6.23 0-1.15-0.205-3.01-1.5-4.61zm-11.8 1.9c0.124 2.75-0.948 4.73-3.19 7.76 0.563-2.11 0.0161-3.68-0.756-4.38 0.0293 0.0773 0.0391 0.14 0.0391 0.256 0 1.8-1.86 5.21-1.86 6.86 0 1.82 0.842 3.41 2.09 5.37h0.363c-0.0093-0.132-0.0098-0.276-0.0098-0.453 0-1.37 0.086-2.97 2.03-5.72 2.02-2.85 2.72-3.54 2.72-5.57 0-1.02-0.195-2.68-1.42-4.11zm23.5 0c0.119 2.75-0.957 4.73-3.2 7.76 0.568-2.11 0.0188-3.68-0.756-4.38 0.036 0.0773 0.0449 0.14 0.0449 0.256 0 1.8-1.86 5.21-1.86 6.86 0 1.82 0.842 3.41 2.09 5.37h0.361c-0.0067-0.132-0.0156-0.276-0.0156-0.453 0-1.37 0.088-2.97 2.03-5.72 2.02-2.85 2.72-3.54 2.72-5.57 0-1.02-0.191-2.68-1.41-4.11zm-9.71 5.4c-1.39 2.85-4.7 5.57-4.7 9.76 0 0.239 0.0228 0.472 0.0508 0.697h0.338c0.492-1.29 1.27-2.76 2.04-4.01 1.4-2.23 2.75-4.22 2.27-6.45zm-11.9 1.12c-1.31 2.54-4.43 4.97-4.43 8.72 0 0.213 0.0183 0.421 0.0449 0.621h0.324c0.459-1.15 1.19-2.46 1.92-3.58 1.32-1.99 2.59-3.76 2.14-5.76zm23.4 0c-1.31 2.54-4.43 4.97-4.43 8.72 0 0.213 0.0143 0.421 0.0449 0.621h0.32c0.463-1.15 1.19-2.46 1.92-3.58 1.32-1.99 2.59-3.76 2.14-5.76zm-11 1.02c-0.12 0.773-0.898 3.03-2.77 5.72-0.643 0.917-0.992 1.87-1.17 2.6h1.27c0.267-0.416 0.569-0.861 0.922-1.36 1.2-1.71 2.12-2.76 2.12-5.05 0-0.797-0.194-1.43-0.373-1.9zm-12 0.895c-0.113 0.689-0.845 2.7-2.61 5.1-0.605 0.817-0.933 1.67-1.1 2.32h1.2c0.26-0.371 0.54-0.771 0.869-1.21 1.13-1.53 2-2.47 2-4.51 0-0.713-0.187-1.27-0.354-1.69zm23.4 0c-0.115 0.689-0.843 2.7-2.61 5.1-0.601 0.817-0.932 1.67-1.1 2.32h1.2c0.252-0.371 0.541-0.771 0.869-1.21 1.13-1.53 2-2.47 2-4.51 0-0.713-0.186-1.27-0.359-1.69zm-34.9 8.51 1.95 3.01h9.68l-1.95-3.01zm28.2 0-1.95 3.01h9.68l1.96-3.01zm-17.1 0.0898 2.11 3.25h11.4l2.11-3.25zm-7.85 4.01 0.734 2.39h6.42l0.732-2.39zm23.5 0 0.73 2.39h6.42l0.732-2.39zm-12.1 0.422 0.793 2.58h6.95l0.795-2.58zm-10.7 3.06 1.73 31.9h0.555l-0.883-31.9zm2.32 0 0.49 31.9h0.762l0.498-31.9zm2.67 0-0.879 31.9h0.551l1.73-31.9zm18.5 0 1.73 31.9h0.549l-0.879-31.9zm2.32 0 0.496 31.9h0.762l0.492-31.9zm2.67 0-0.877 31.9h0.551l1.73-31.9zm-17 0.699 0.32 5.87c0.451 0.076 0.916 0.145 1.37 0.195l-0.164-6.06zm2.51 0 0.0957 6.14c0.291 0.0133 0.568 0.0254 0.857 0.0254 0.284 0 0.555-0.0134 0.846-0.0254l0.0938-6.14zm2.88 0-0.164 6.06c0.453-0.0507 0.918-0.117 1.36-0.195l0.322-5.87zm-4.54 15.7 1.03 18.9h0.58l-0.506-18.8c-0.352-0.0253-0.754-0.0556-1.1-0.0996zm5.21 0c-0.341 0.0453-0.744 0.0735-1.1 0.105l-0.504 18.8h0.58zm-3.31 0.15 0.279 18.7h0.846l0.281-18.7c-0.248 0.0067-0.448 0.0234-0.697 0.0234-0.251 0-0.456-0.0128-0.709-0.0234zm-12.5 16.5-0.201 1.02 1.7 1.33 1.71-1.33-0.199-1.02zm23.4 0-0.197 1.02 1.71 1.33 1.7-1.33-0.199-1.02zm-11.8 3.38-0.213 1.1 1.85 1.44 1.84-1.44-0.209-1.1z" fill="#806941"/>
   <path transform="matrix(.75 0 0 -.75 595 374)" d="m31.3 49.1c-0.209 1.7-0.408 3.79-1.21 5.05-0.976 1.54-3.41 2.02-4.82 2.46-0.468 0.149-0.97 0.412-1.01 1.22 2.84 0.993 5.8 1.4 8.73 1.29 3.48-3.63 3.95-6.84 3.76-9.6-1.18 1.71-1.96 2.36-3.04 3.44-0.683-1.24-1.59-2.72-2.41-3.86zm53.6 0c-0.823 1.14-1.73 2.62-2.41 3.86-1.08-1.08-1.86-1.73-3.04-3.44-0.195 2.76 0.272 5.98 3.76 9.6 2.94 0.108 5.89-0.296 8.73-1.29-0.04-0.807-0.541-1.07-1.01-1.22-1.41-0.447-3.84-0.926-4.82-2.46-0.804-1.27-1-3.35-1.21-5.05zm-42.5 9.81c-3.53 0.736-7.01 1.39-9.89 1.39-1.85-0.0013-4.61-0.0933-8.32-1.22 0.137 1.7 0.642 4.33 1.21 6.46 0.908 1.16 3.06 1.89 6.31 1.89 3.62 0 8-0.749 11.1-1.28zm31.3 0-0.395 7.24c3.08 0.528 7.46 1.28 11.1 1.28 3.24 0 5.4-0.733 6.31-1.89 0.564-2.13 1.07-4.76 1.21-6.46-3.71 1.13-6.47 1.22-8.32 1.22-2.88 0-6.35-0.655-9.88-1.39zm-23.5 0.193-0.4 7.27c2.36 0.969 5.67 1.61 8.19 1.61 2.52 0 5.82-0.644 8.18-1.61l-0.391-7.27c-2.36 0.963-5.43 1.59-7.79 1.59-2.37 0-5.43-0.625-7.79-1.59zm24.5 2.16c0.137 0.0347 0.263 0.0599 0.434 0.0879 0.159 0.0293 0.323 0.0542 0.498 0.0742-0.0267 0.281 0.051 0.541 0.127 0.814l0.33 1.16c0.024 0.0867 0.111 0.343 0.148 0.459 0.1-0.123 0.184-0.244 0.326-0.445l0.59-0.82c0.203-0.283 0.393-0.533 0.527-0.828 0.121 0.0293 0.277 0.0601 0.383 0.0801 0.189 0.0307 0.355 0.055 0.492 0.0684 0.0453 0.024 0.039 0.117-0.0117 0.139l-0.156-0.0039c-0.211-0.0027-0.273 0.0664-0.311 0.314-0.119 0.685-0.228 1.38-0.314 2.07-0.0373 0.316 0.0122 0.354 0.16 0.404l0.129 0.0449c0.04 0.028 0.0242 0.126-0.0371 0.131-0.196-0.04-0.378-0.0748-0.566-0.105-0.217-0.0373-0.417-0.0698-0.621-0.0938-0.036-0.0267-0.0357-0.114 0.0137-0.137l0.127-0.0039c0.191 0 0.214-0.0284 0.264-0.346l0.326-1.91-0.0117-0.0039c-0.169 0.237-0.261 0.366-0.377 0.537l-0.541 0.752c-0.213 0.299-0.532 0.778-0.654 0.982-0.024 0.0173-0.0904 0.0058-0.121-0.0195-0.0387-0.265-0.157-0.757-0.227-1.01l-0.264-0.967c-0.0587-0.208-0.134-0.522-0.162-0.674h-0.0078c-0.0507 0.228-0.126 0.589-0.166 0.783-0.056 0.283-0.139 0.696-0.203 1.07-0.0493 0.309-0.06 0.383 0.139 0.455l0.146 0.0508c0.032 0.0387 0.0134 0.125-0.0293 0.139-0.167-0.0387-0.316-0.0689-0.482-0.0996-0.151-0.0267-0.32-0.0503-0.504-0.0703-0.0373-0.032-0.0243-0.12 0.0117-0.139l0.0781 0.0059c0.228 0.0093 0.278-0.0566 0.354-0.334 0.0867-0.291 0.151-0.586 0.25-1.07 0.076-0.312 0.168-0.695 0.215-0.979 0.0387-0.22-0.0128-0.328-0.188-0.391l-0.16-0.0508c-0.0173-0.0373-0.0038-0.125 0.0469-0.135zm-35.1 0.229c0.106 0.0043 0.21 0.0155 0.324 0.0215 0.0627 0.0947 0.156 0.397 0.188 0.617-0.016 0.0467-0.101 0.0624-0.15 0.0371-0.101-0.233-0.314-0.527-0.709-0.467-0.375 0.0507-0.496 0.322-0.463 0.568 0.0307 0.196 0.199 0.388 0.529 0.508l0.314 0.113c0.328 0.115 0.707 0.357 0.773 0.83 0.0773 0.535-0.276 0.976-0.957 1.07-0.433 0.0613-0.696-0.0419-0.799-0.0859-0.0973-0.0853-0.203-0.401-0.24-0.691 0.024-0.052 0.1-0.069 0.139-0.041 0.124 0.227 0.447 0.692 0.908 0.627 0.353-0.0507 0.53-0.295 0.484-0.582-0.0387-0.268-0.195-0.465-0.572-0.611l-0.219-0.0859c-0.38-0.145-0.732-0.386-0.791-0.809-0.0707-0.464 0.222-0.909 0.908-1.01 0.119-0.0167 0.226-0.018 0.332-0.0137zm49.9 0.0371c0.0747 0.0893 0.195 0.38 0.246 0.596-0.012 0.0493-0.0926 0.0761-0.141 0.0508-0.128-0.221-0.363-0.493-0.754-0.398-0.368 0.0907-0.466 0.366-0.402 0.611 0.0427 0.196 0.227 0.37 0.572 0.455l0.32 0.084c0.341 0.0853 0.74 0.285 0.854 0.752 0.127 0.525-0.184 0.996-0.854 1.16-0.42 0.1-0.691 0.021-0.801-0.0137-0.107-0.0747-0.243-0.377-0.309-0.668 0.016-0.0493 0.0959-0.0742 0.143-0.0488 0.137 0.213 0.504 0.649 0.955 0.537 0.355-0.0827 0.497-0.344 0.432-0.625-0.0653-0.265-0.242-0.444-0.631-0.555l-0.229-0.0644c-0.391-0.107-0.763-0.314-0.865-0.73-0.107-0.455 0.135-0.925 0.807-1.09 0.24-0.06 0.428-0.046 0.656-0.0566zm-24.8 0.146c0.0747 0.0893 0.202 0.379 0.258 0.594-0.012 0.0467-0.0939 0.0734-0.145 0.0508-0.132-0.216-0.372-0.482-0.758-0.381-0.367 0.0987-0.456 0.376-0.391 0.619 0.0493 0.192 0.236 0.364 0.58 0.441l0.326 0.0762c0.337 0.0773 0.741 0.276 0.861 0.738 0.136 0.52-0.16 0.996-0.822 1.17-0.42 0.112-0.691 0.0365-0.805 0.0059-0.101-0.076-0.247-0.371-0.316-0.656 0.012-0.056 0.088-0.0806 0.139-0.0566 0.139 0.209 0.517 0.634 0.965 0.514 0.345-0.0907 0.487-0.356 0.414-0.635-0.068-0.26-0.243-0.438-0.641-0.541l-0.229-0.0566c-0.393-0.0987-0.768-0.296-0.875-0.713-0.124-0.449 0.115-0.923 0.781-1.1 0.239-0.0627 0.43-0.053 0.656-0.0703zm-38.1 0.141c0.179 0.0307 0.38 0.0562 0.568 0.0762 0.209 0.024 0.368 0.036 0.617 0.0547 0.04 0.0307 0.0375 0.109-0.0078 0.137l-0.117 0.0156c-0.109 0.0133-0.152 0.0316-0.152 0.0703-0.0053 0.044 0.0214 0.151 0.164 0.652l0.248 0.871c0.06 0.221 0.156 0.516 0.193 0.629 0.315-0.567 0.668-1.18 0.988-1.8 0.0947-0.177 0.0852-0.216-0.0508-0.266l-0.131-0.0488c-0.032-0.0373-0.0173-0.113 0.0254-0.135 0.191 0.0307 0.349 0.0516 0.5 0.0703 0.168 0.016 0.322 0.0272 0.459 0.0312 0.0347 0.032 0.0222 0.107-0.0059 0.139l-0.121 0.0137c-0.113 0.0107-0.216 0.0322-0.314 0.16-0.153 0.212-0.32 0.516-0.592 0.965l-0.324 0.555c-0.24 0.405-0.518 0.935-0.623 1.17-0.012 0.0133-0.05 0.0196-0.082 0.0156-0.0307-4e-3 -0.0686-0.0185-0.0859-0.0332-0.036-0.195-0.0844-0.433-0.148-0.643l-0.611-2.07c-0.0947-0.332-0.129-0.4-0.318-0.457l-0.107-0.0391c-0.032-0.0387-0.0187-0.119 0.0293-0.131zm10.9 0.0312c0.0293 0.076 0.107 0.44 0.164 0.639-0.0147 0.0413-0.112 0.0591-0.152 0.0391-0.113-0.264-0.194-0.366-0.352-0.389-0.109-0.012-0.254-0.0102-0.381 0.0059l-0.314 0.041c-0.201 0.0267-0.201 0.0334-0.164 0.303l0.102 0.791c0.0173 0.125 0.0249 0.125 0.129 0.113l0.225-0.0293c0.411-0.0507 0.478-0.0654 0.494-0.273l0.0137-0.162c0.0333-0.0387 0.123-0.0522 0.148-0.0176 0.012 0.129 0.0248 0.299 0.0488 0.471 0.0253 0.179 0.0522 0.339 0.0762 0.492-0.0133 0.0373-0.106 0.0474-0.15 0.0234l-0.0527-0.182c-0.0613-0.195-0.138-0.191-0.553-0.139l-0.221 0.0293c-0.108 0.0147-0.109 0.022-0.0957 0.141l0.0762 0.592c0.032 0.24 0.0633 0.409 0.141 0.479 0.0667 0.0587 0.15 0.0844 0.543 0.0391 0.603-0.0747 0.684-0.221 0.803-0.621 0.0373-0.0373 0.115-0.0343 0.152 0.0098-0.0013 0.201-0.064 0.569-0.113 0.705-0.201 0.0187-0.605 0.0647-1.16 0.137l-0.531 0.0664c-0.211 0.0293-0.492 0.0668-0.707 0.105-0.0373-0.012-0.0501-0.0974-0.0234-0.135l0.172-0.041c0.219-0.0507 0.256-0.0697 0.193-0.568l-0.229-1.75c-0.0613-0.497-0.109-0.51-0.33-0.51h-0.0762c-0.0387-0.0253-0.0452-0.113-0.0078-0.135 0.177-0.0147 0.4-0.0371 0.605-0.0664l0.895-0.113c0.301-0.0373 0.571-0.0778 0.631-0.0938zm15.4 0.104c0.0387 0.0093 0.0583 0.0279 0.0703 0.0586 0.0187 0.223 0.0256 0.454 0.043 0.68l0.17 2.09c0.0293 0.333 0.0443 0.368 0.266 0.471l0.0684 0.0332c0.0267 0.044 0.0041 0.119-0.0332 0.135-0.184-0.0573-0.356-0.105-0.596-0.168-0.192-0.0507-0.396-0.091-0.555-0.127-0.0387-0.0333-0.0197-0.119 0.0137-0.139l0.107 0.0137c0.168 0.0187 0.2-0.0028 0.182-0.215l-0.0566-0.678c-8e-3 -0.136-0.0302-0.14-0.158-0.172l-0.605-0.156c-0.124-0.0293-0.115-0.0274-0.189 0.0859l-0.328 0.498c-0.163 0.252-0.148 0.265 0.0137 0.334l0.129 0.0566c0.0213 0.0427-0.0023 0.122-0.041 0.133-0.145-0.048-0.294-0.0886-0.482-0.141-0.152-0.0373-0.3-0.0682-0.463-0.102-0.0253-0.0293-0.0115-0.1 0.0352-0.135l0.141 0.0117c0.14 0.012 0.202-0.0099 0.305-0.145 0.0853-0.107 0.212-0.279 0.371-0.504l1.04-1.47c0.0947-0.133 0.17-0.231 0.17-0.312 0.172 0.0093 0.371-0.143 0.379-0.139zm27.4 0.16c0.116-0.0078 0.236-0.0047 0.359 0.0098 1.08 0.131 1.55 0.973 1.45 1.83-0.112 0.925-0.898 1.53-1.85 1.42-1.06-0.127-1.58-0.945-1.48-1.78 0.1-0.839 0.709-1.42 1.52-1.48zm7.12 0c0.036 0.076 0.106 0.442 0.162 0.641-0.012 0.04-0.11 0.0584-0.15 0.0371-0.111-0.261-0.191-0.363-0.35-0.387-0.108-0.016-0.254-0.0148-0.381 0.0039l-0.312 0.0391c-0.204 0.0253-0.199 0.0347-0.166 0.303l0.0977 0.793c0.016 0.12 0.0243 0.127 0.127 0.113l0.229-0.0293c0.408-0.0507 0.479-0.0662 0.494-0.271l0.0117-0.164c0.036-0.0373 0.124-0.0497 0.152-0.0137 0.0093 0.128 0.0216 0.297 0.0469 0.467 0.0213 0.18 0.0508 0.343 0.0762 0.492-0.024 0.0373-0.112 0.0474-0.152 0.0234l-0.0547-0.184c-0.0587-0.193-0.141-0.193-0.549-0.141l-0.225 0.0312c-0.105 0.012-0.108 0.022-0.0918 0.137l0.0742 0.598c0.0267 0.24 0.0553 0.405 0.141 0.479 0.0627 0.06 0.145 0.0805 0.541 0.0352 0.596-0.0693 0.68-0.215 0.797-0.613 0.036-0.0373 0.124-0.0368 0.154 0.0059-4e-3 0.203-0.0608 0.572-0.107 0.707-0.212 0.0173-0.617 0.0615-1.16 0.131l-0.537 0.0684c-0.205 0.024-0.496 0.0662-0.701 0.104-0.04-0.0147-0.0593-0.0994-0.0273-0.137l0.17-0.041c0.216-0.0493 0.257-0.0691 0.193-0.566l-0.219-1.75c-0.064-0.495-0.107-0.508-0.328-0.51h-0.0742c-0.0373-0.028-0.0464-0.114-0.0117-0.137 0.181-0.012 0.403-0.0366 0.607-0.0606l0.895-0.113c0.299-0.0387 0.574-0.0778 0.629-0.0938zm-54.2 0.154c0.372-0.0173 0.695 0.0158 0.908 0.117 0.245 0.119 0.434 0.33 0.447 0.67 0.0253 0.437-0.303 0.67-0.529 0.775-0.0253 0.016-0.016 0.0534 0 0.0801 0.416 0.623 0.668 1.01 0.9 1.19 0.137 0.108 0.277 0.13 0.334 0.131 0.0253 0.02 0.0257 0.0717 0.0137 0.0957-0.0547 0.0173-0.144 0.035-0.312 0.043-0.455 0.024-0.708-0.15-1.02-0.576-0.139-0.192-0.285-0.446-0.406-0.627-0.0933-0.137-0.144-0.153-0.303-0.145-0.144 0.0067-0.145 0.012-0.145 0.109l0.0352 0.607c0.0253 0.5 0.0676 0.512 0.293 0.529l0.102 0.0078c0.0373 0.0347 0.0373 0.119 0 0.139-0.213 0-0.427 0.0056-0.631 0.0176-0.213 0.0107-0.425 0.0249-0.643 0.0449-0.0373-0.0186-0.0517-0.101-0.0117-0.139l0.0996-0.0176c0.224-0.0387 0.267-0.0566 0.24-0.557l-0.0859-1.73c-0.0187-0.455-0.0286-0.51-0.254-0.523l-0.121-0.0059c-0.0333-0.032-0.0379-0.109-2e-3 -0.135 0.299-0.0413 0.702-0.0784 1.09-0.0957zm29.2 2e-3c0.0387 0.076 0.139 0.44 0.201 0.631-0.012 0.044-0.101 0.0694-0.139 0.0508-0.129-0.253-0.227-0.352-0.379-0.365-0.113-0.0067-0.254 0.0072-0.377 0.0312l-0.316 0.0644c-0.201 0.0373-0.2 0.0439-0.143 0.311l0.154 0.785c0.0227 0.12 0.0287 0.127 0.137 0.105l0.219-0.0449c0.404-0.08 0.479-0.0986 0.479-0.307v-0.164c0.0333-0.04 0.12-0.0562 0.15-0.0215 0.0173 0.127 0.0428 0.293 0.0762 0.467 0.0373 0.176 0.076 0.337 0.113 0.482-0.02 0.036-0.108 0.0545-0.15 0.0332l-0.0644-0.178c-0.0747-0.191-0.154-0.185-0.561-0.104l-0.221 0.0469c-0.111 0.0187-0.113 0.0292-0.0879 0.143l0.115 0.592c0.0493 0.237 0.0858 0.405 0.174 0.469 0.0653 0.056 0.152 0.072 0.543 0 0.592-0.115 0.669-0.263 0.756-0.67 0.0373-0.0427 0.124-0.0426 0.158-0.0039 8e-3 0.2-0.0179 0.577-0.0606 0.713-0.209 0.032-0.611 0.104-1.16 0.211l-0.529 0.107c-0.201 0.0387-0.487 0.0958-0.693 0.146-0.0387-0.0067-0.0624-0.0883-0.0371-0.127l0.172-0.0547c0.213-0.0653 0.254-0.0881 0.156-0.58l-0.342-1.73c-0.1-0.493-0.142-0.5-0.363-0.488l-0.0781 0.0039c-0.0387-0.024-0.0489-0.11-0.0195-0.137 0.179-0.0267 0.398-0.0642 0.6-0.102l0.893-0.176c0.293-0.06 0.566-0.117 0.621-0.141zm-32.1 2e-3c0.212 0.0187 0.424 0.031 0.643 0.043 0.203 0.0107 0.416 0.0163 0.631 0.0137 0.036 0.0173 0.036 0.108 0 0.139l-0.104 0.0059c-0.224 0.02-0.269 0.0325-0.293 0.535l-0.084 1.76c-0.024 0.5 0.013 0.52 0.238 0.559l0.104 0.0176c0.028 0.032 0.0238 0.119-0.0176 0.133-0.209-0.016-0.423-0.0317-0.627-0.041-0.212-0.0107-0.429-0.0156-0.641-0.0156-0.0373-0.02-0.0373-0.108 0-0.139l0.0996-0.0078c0.227-0.0173 0.268-0.0312 0.291-0.535l0.0879-1.76c0.0253-0.497-0.0149-0.517-0.24-0.555l-0.0996-0.0195c-0.0347-0.0347-0.027-0.118 0.0117-0.131zm50.2 0.0312c-0.467-0.056-1.02 0.229-1.14 1.23-0.076 0.647 0.0937 1.56 0.9 1.66 0.531 0.064 1.01-0.285 1.12-1.23 0.0867-0.707-0.137-1.57-0.883-1.66zm2.93 0.0644c0.367 0.0107 0.69 0.0681 0.893 0.189 0.237 0.137 0.404 0.363 0.391 0.703-0.012 0.436-0.353 0.643-0.592 0.727-0.0253 0.0173-0.0173 0.054 0 0.082 0.359 0.648 0.58 1.06 0.797 1.25 0.131 0.116 0.265 0.15 0.326 0.154 0.024 0.0227 0.0212 0.075 0.0039 0.0977-0.0547 0.012-0.148 0.0235-0.314 0.0195-0.455-0.0147-0.692-0.208-0.963-0.658-0.127-0.2-0.251-0.466-0.354-0.652-0.0827-0.143-0.137-0.164-0.289-0.168-0.141-0.0067-0.149 3.19e-4 -0.15 0.0977l-0.0195 0.605c-0.0187 0.501 0.0274 0.513 0.246 0.551l0.0996 0.0195c0.036 0.032 0.0256 0.117-0.0117 0.135-0.204-0.016-0.418-0.0265-0.627-0.0332-0.208-0.0067-0.419-0.0105-0.635-0.0078-0.0373-0.0187-0.0511-0.106-0.0098-0.137l0.111-0.0078c0.219-0.0253 0.265-0.0358 0.277-0.537l0.0527-1.73c0.0147-0.453 0.0116-0.51-0.207-0.541l-0.123-0.0156c-0.032-0.036-0.0283-0.111 0.0117-0.133 0.293-0.0173 0.697-0.0191 1.09-0.0098zm-50.2 0.0879c-0.252 0.012-0.252 0.0241-0.24 0.244l0.0469 0.984c4e-3 0.152 0.0025 0.16 0.23 0.15 0.467-0.0267 0.669-0.26 0.643-0.711-0.0107-0.372-0.272-0.688-0.68-0.668zm21.1 0.043c0.301 0.02 0.703 0.0702 1.08 0.133 0.365 0.0573 0.674 0.152 0.863 0.297 0.22 0.163 0.358 0.414 0.301 0.75-0.0693 0.428-0.434 0.59-0.678 0.646-0.032 0.0093-0.0265 0.0521-0.0078 0.0801 0.271 0.692 0.442 1.13 0.631 1.34 0.113 0.129 0.243 0.183 0.303 0.197 0.012 0.0227 0.0103 0.0711-0.0137 0.0938-0.0507 0.0067-0.147 0.0064-0.307-0.0176-0.448-0.0747-0.664-0.295-0.879-0.775-0.0987-0.216-0.188-0.496-0.27-0.693-0.0573-0.157-0.108-0.18-0.264-0.205-0.141-0.0227-0.146-0.0212-0.158 0.0801l-0.102 0.598c-0.076 0.495-0.0389 0.517 0.176 0.574l0.102 0.0332c0.0267 0.0373 0.0119 0.119-0.0254 0.135-0.207-0.0413-0.416-0.0786-0.621-0.113-0.212-0.0333-0.415-0.0587-0.635-0.084-0.0307-0.0253-0.035-0.113 0.0117-0.139l0.109 2e-3c0.221 0.0067 0.265 5.27e-4 0.34-0.494l0.277-1.71c0.0693-0.451 0.076-0.508-0.139-0.568l-0.125-0.0293c-0.0253-0.0373-0.0146-0.113 0.0254-0.133zm29.1 0.0625c-0.241-0.0093-0.251 0.0047-0.254 0.221l-0.0352 0.982c0 0.152-7.24e-4 0.163 0.225 0.17 0.46 0.0147 0.682-0.208 0.695-0.654 0.012-0.375-0.219-0.705-0.631-0.719zm-31 0.0664c-0.024 0.028-0.0946 0.132-0.227 0.326l-0.328 0.49c-0.0853 0.12-0.0743 0.12 0.0391 0.152l0.475 0.119c0.129 0.0307 0.146 0.0288 0.141-0.0898l-0.0527-0.602c-0.0227-0.264-0.0212-0.355-0.0332-0.393zm7.49 0.0137c0.028-0.0027 0.0512 0.0095 0.0606 0.0215-0.04 0.195-0.0616 0.603-0.0469 0.754-0.0213 0.0387-0.0993 0.0515-0.141 0.0195-0.0747-0.367-0.176-0.452-0.68-0.434l-0.264 0.0098c-0.125 0.0027-0.126 0.0136-0.125 0.211l0.0762 2.04c0.024 0.503 0.0604 0.511 0.287 0.529l0.172 0.0117c0.0307 0.0307 0.0295 0.117-0.0078 0.139-0.275 0-0.484 0.0019-0.693 0.0059-0.208 0.0133-0.428 0.0255-0.73 0.0469-0.0387-0.0213-0.0497-0.113-0.0137-0.137l0.195-0.0352c0.221-0.032 0.262-0.0384 0.246-0.541l-0.0762-2.04c-0.0107-0.196-0.01-0.206-0.137-0.203l-0.264 0.0117c-0.435 0.0147-0.557 0.0729-0.721 0.461-0.036 0.032-0.133 0.0186-0.15-0.0254 0.068-0.259 0.126-0.555 0.152-0.725 0.012-0.0133 0.0314-0.0195 0.0527-0.0195 0.0227 0 0.0349 0.0035 0.0469 0.0195 0.028 0.117 0.0974 0.121 0.416 0.107l1.93-0.0724c0.233-0.0107 0.303-0.026 0.354-0.137 0.0227-0.012 0.0385-0.0215 0.0625-0.0215zm-4.67 0.184c-0.0365 0.0255-0.0472 0.0828-0.0625 0.189l-0.156 0.973c-0.0253 0.151-0.0267 0.158 0.197 0.195 0.46 0.072 0.705-0.121 0.777-0.562 0.0547-0.372-0.133-0.731-0.537-0.795-0.12-0.0193-0.182-0.0255-0.219 0z" fill="#fff"/>
  </g>
 </g>
</svg>
